name rise44.9368peak50.754fall52.0217.mot
datacolumns 19
datarows 23
range 10.68329700000000 10.71998100000000
endheader
time	ground_force1_vx	ground_force1_vy	ground_force1_vz	ground_force1_px	ground_force1_py	ground_force1_pz	ground_force2_vx	ground_force2_vy	ground_force2_vz	ground_force2_px	ground_force2_py	ground_force2_pz	ground_torque1_x	ground_torque1_y	ground_torque1_z	ground_torque2_x	ground_torque2_y	ground_torque2_z	
10.68329700000000	-45.50303500000000	795.86207400000001	68.69989200000001	0.16614700000000	0.00000000000000	0.11989600000000	-9.35073200000000	46.02099900000000	7.22657700000000	0.36781600000000	0.00000000000000	-0.09064500000000	0.00000000000000	32.12646300000000	0.00000000000000	0.00000000000000	4.41018900000000	0.00000000000000	
10.68497000000000	-45.68195900000000	792.59063400000002	68.47213800000000	0.16542100000000	0.00000000000000	0.11981500000000	-10.14783800000000	52.67252300000000	7.92565600000000	0.37086300000000	0.00000000000000	-0.09122100000000	0.00000000000000	31.95429600000000	0.00000000000000	0.00000000000000	4.86705800000000	0.00000000000000	
10.68662600000000	-45.87905700000000	789.20205399999998	68.20982900000000	0.16470100000000	0.00000000000000	0.11972800000000	-10.79227800000000	59.27375600000000	8.52763600000000	0.37380300000000	0.00000000000000	-0.09174300000000	0.00000000000000	31.77858000000000	0.00000000000000	0.00000000000000	5.27116400000000	0.00000000000000	
10.68829700000000	-46.09472000000000	785.69749700000000	67.91275300000000	0.16398600000000	0.00000000000000	0.11963500000000	-11.26949500000000	65.75837400000000	9.02123100000000	0.37665400000000	0.00000000000000	-0.09222100000000	0.00000000000000	31.59956500000000	0.00000000000000	0.00000000000000	5.61526000000000	0.00000000000000	
10.68997000000000	-46.32926900000000	782.07809999999995	67.58076900000000	0.16327900000000	0.00000000000000	0.11953600000000	-11.57332700000000	72.08482700000000	9.40112200000000	0.37943000000000	0.00000000000000	-0.09266000000000	0.00000000000000	31.41749900000000	0.00000000000000	0.00000000000000	5.89564100000000	0.00000000000000	
10.69163400000000	-46.58296000000000	778.34496899999999	67.21380800000000	0.16258100000000	0.00000000000000	0.11943100000000	-11.70531600000000	78.23589600000000	9.66751200000000	0.38214100000000	0.00000000000000	-0.09306500000000	0.00000000000000	31.23262200000000	0.00000000000000	0.00000000000000	6.11193700000000	0.00000000000000	
10.69329400000000	-46.85597200000000	774.49917200000004	66.81187000000000	0.16189200000000	0.00000000000000	0.11932000000000	-11.67348800000000	84.21631800000000	9.82529700000000	0.38479600000000	0.00000000000000	-0.09343900000000	0.00000000000000	31.04517100000000	0.00000000000000	0.00000000000000	6.26665000000000	0.00000000000000	
10.69497200000000	-47.14840700000000	770.54173100000003	66.37502800000000	0.16121500000000	0.00000000000000	0.11920300000000	-11.49082700000000	90.04901700000001	9.88300900000000	0.38740200000000	0.00000000000000	-0.09378700000000	0.00000000000000	30.85537300000000	0.00000000000000	0.00000000000000	6.36455000000000	0.00000000000000	
10.69663000000000	-47.46029300000000	766.47361799999999	65.90342400000000	0.16054900000000	0.00000000000000	0.11907900000000	-11.17359400000000	95.77049700000001	9.85162700000000	0.38996300000000	0.00000000000000	-0.09411100000000	0.00000000000000	30.66344400000000	0.00000000000000	0.00000000000000	6.41197300000000	0.00000000000000	
10.69829400000000	-47.79157400000000	762.29575000000000	65.39727100000000	0.15989700000000	0.00000000000000	0.11894800000000	-10.73968200000000	101.42591899999999	9.74340800000000	0.39248300000000	0.00000000000000	-0.09441400000000	0.00000000000000	30.46959100000000	0.00000000000000	0.00000000000000	6.41611600000000	0.00000000000000	
10.69998700000000	-48.14211100000000	758.00898199999995	64.85685100000001	0.15925900000000	0.00000000000000	0.11881100000000	-10.20711400000000	107.06432400000000	9.57080600000000	0.39496400000000	0.00000000000000	-0.09469800000000	0.00000000000000	30.27400700000000	0.00000000000000	0.00000000000000	6.38437800000000	0.00000000000000	
10.70163400000000	-48.51168000000000	753.61410500000000	64.28251600000000	0.15863600000000	0.00000000000000	0.11866700000000	-9.59279300000000	112.73435700000000	9.34556700000000	0.39741100000000	0.00000000000000	-0.09496600000000	0.00000000000000	30.07686800000000	0.00000000000000	0.00000000000000	6.32379200000000	0.00000000000000	
10.70329600000000	-48.89997000000000	749.11184500000002	63.67468300000000	0.15802900000000	0.00000000000000	0.11851500000000	-8.91155600000000	118.48073500000000	9.07802800000000	0.39982200000000	0.00000000000000	-0.09521800000000	0.00000000000000	29.87833600000000	0.00000000000000	0.00000000000000	6.24058300000000	0.00000000000000	
10.70497600000000	-49.30658100000000	744.50285699999995	63.03383800000000	0.15744000000000	0.00000000000000	0.11835700000000	-8.17554600000000	124.34160700000000	8.77664800000000	0.40220000000000	0.00000000000000	-0.09545600000000	0.00000000000000	29.67855800000000	0.00000000000000	0.00000000000000	6.13985500000000	0.00000000000000	
10.70663000000000	-49.73102100000000	739.78772600000002	62.36053100000000	0.15686900000000	0.00000000000000	0.11819100000000	-7.39390100000000	130.34685700000000	8.44776400000000	0.40454400000000	0.00000000000000	-0.09568200000000	0.00000000000000	29.47765800000000	0.00000000000000	0.00000000000000	6.02541600000000	0.00000000000000	
10.70829600000000	-50.17270800000000	734.96696599999996	61.65537800000000	0.15631700000000	0.00000000000000	0.11801800000000	-6.57272600000000	136.51728700000001	8.09554600000000	0.40685600000000	0.00000000000000	-0.09589700000000	0.00000000000000	29.27574300000000	0.00000000000000	0.00000000000000	5.89973700000000	0.00000000000000	
10.70996600000000	-50.63096300000000	730.04101900000001	60.91905300000000	0.15578400000000	0.00000000000000	0.11783800000000	-5.71529600000000	142.86461399999999	7.72212300000000	0.40913300000000	0.00000000000000	-0.09610100000000	0.00000000000000	29.07290000000000	0.00000000000000	0.00000000000000	5.76400400000000	0.00000000000000	
10.71163200000000	-51.10501500000000	725.01025800000002	60.15229300000000	0.15527200000000	0.00000000000000	0.11765100000000	-4.82243700000000	149.39209900000000	7.32784000000000	0.41137700000000	0.00000000000000	-0.09629600000000	0.00000000000000	28.86919400000000	0.00000000000000	0.00000000000000	5.61826800000000	0.00000000000000	
10.71330000000000	-51.59399700000000	719.87498400000004	59.35589200000000	0.15478100000000	0.00000000000000	0.11745700000000	-3.89301900000000	156.09567300000001	6.91159900000000	0.41358500000000	0.00000000000000	-0.09648300000000	0.00000000000000	28.66466800000000	0.00000000000000	0.00000000000000	5.46164700000000	0.00000000000000	
10.71497500000000	-52.09694700000000	714.63543400000003	58.53070200000000	0.15431100000000	0.00000000000000	0.11725500000000	-2.92450900000000	162.96536200000000	6.47125000000000	0.41575800000000	0.00000000000000	-0.09666200000000	0.00000000000000	28.45934300000000	0.00000000000000	0.00000000000000	5.29256000000000	0.00000000000000	
10.71663400000000	-52.61280800000000	709.29178000000002	57.67762800000000	0.15386300000000	0.00000000000000	0.11704600000000	-1.91352700000000	169.98686699999999	6.00398200000000	0.41789400000000	0.00000000000000	-0.09683300000000	0.00000000000000	28.25321700000000	0.00000000000000	0.00000000000000	5.10897800000000	0.00000000000000	
10.71829700000000	-53.14042500000000	703.84413199999995	56.79762500000000	0.15343700000000	0.00000000000000	0.11683000000000	-0.85637000000000	177.14314100000001	5.50670000000000	0.41999100000000	0.00000000000000	-0.09699800000000	0.00000000000000	28.04626700000000	0.00000000000000	0.00000000000000	4.90865900000000	0.00000000000000	
10.71998100000000	-53.67855200000000	698.29254800000001	55.89170000000000	0.15303400000000	0.00000000000000	0.11660700000000	0.25054300000000	184.41585000000001	4.97634900000000	0.42204900000000	0.00000000000000	-0.09715700000000	0.00000000000000	27.83844600000000	0.00000000000000	0.00000000000000	4.68935700000000	0.00000000000000	
